<svg version="1.2" xmlns="http://www.w3.org/2000/svg" viewBox="0 0 120 33" width="120" height="33">
	<title>image</title>
	<defs>
		<linearGradient id="g1" x1="15.4" y1="28.9" x2="15.8" y2="36.4" gradientUnits="userSpaceOnUse">
			<stop offset="0" stop-color="#1096fe"/>
			<stop offset="0" stop-color="#1096fe"/>
			<stop offset="0" stop-color="#1095fe"/>
			<stop offset="0" stop-color="#1194fe"/>
			<stop offset="0" stop-color="#1193fe"/>
			<stop offset="0" stop-color="#1192fe"/>
			<stop offset="0" stop-color="#1291fe"/>
			<stop offset=".1" stop-color="#1290fe"/>
			<stop offset=".1" stop-color="#128ffe"/>
			<stop offset=".1" stop-color="#138efe"/>
			<stop offset=".1" stop-color="#138dfd"/>
			<stop offset=".1" stop-color="#138cfd"/>
			<stop offset=".1" stop-color="#148bfd"/>
			<stop offset=".1" stop-color="#148afd"/>
			<stop offset=".1" stop-color="#1489fd"/>
			<stop offset=".1" stop-color="#1588fd"/>
			<stop offset=".1" stop-color="#1587fd"/>
			<stop offset=".1" stop-color="#1586fd"/>
			<stop offset=".1" stop-color="#1685fd"/>
			<stop offset=".1" stop-color="#1684fd"/>
			<stop offset=".2" stop-color="#1683fd"/>
			<stop offset=".2" stop-color="#1782fd"/>
			<stop offset=".2" stop-color="#1782fd"/>
			<stop offset=".2" stop-color="#1881fd"/>
			<stop offset=".2" stop-color="#1880fd"/>
			<stop offset=".2" stop-color="#187ffd"/>
			<stop offset=".2" stop-color="#197efd"/>
			<stop offset=".2" stop-color="#197dfd"/>
			<stop offset=".2" stop-color="#197cfd"/>
			<stop offset=".2" stop-color="#1a7bfd"/>
			<stop offset=".2" stop-color="#1a7afd"/>
			<stop offset=".2" stop-color="#1a79fd"/>
			<stop offset=".3" stop-color="#1b78fd"/>
			<stop offset=".3" stop-color="#1b77fd"/>
			<stop offset=".3" stop-color="#1b76fd"/>
			<stop offset=".3" stop-color="#1c75fd"/>
			<stop offset=".3" stop-color="#1c74fc"/>
			<stop offset=".3" stop-color="#1c73fc"/>
			<stop offset=".3" stop-color="#1d72fc"/>
			<stop offset=".3" stop-color="#1d71fc"/>
			<stop offset=".3" stop-color="#1d70fc"/>
			<stop offset=".3" stop-color="#1e6ffc"/>
			<stop offset=".3" stop-color="#1e6efc"/>
			<stop offset=".3" stop-color="#1e6efc"/>
			<stop offset=".3" stop-color="#1f6dfc"/>
			<stop offset=".4" stop-color="#1f6cfc"/>
			<stop offset=".4" stop-color="#1f6bfc"/>
			<stop offset=".4" stop-color="#206afc"/>
			<stop offset=".4" stop-color="#2069fc"/>
			<stop offset=".4" stop-color="#2068fc"/>
			<stop offset=".4" stop-color="#2167fc"/>
			<stop offset=".4" stop-color="#2166fc"/>
			<stop offset=".4" stop-color="#2165fc"/>
			<stop offset=".4" stop-color="#2264fc"/>
			<stop offset=".4" stop-color="#2263fc"/>
			<stop offset=".4" stop-color="#2262fc"/>
			<stop offset=".4" stop-color="#2361fc"/>
			<stop offset=".4" stop-color="#2360fc"/>
			<stop offset=".5" stop-color="#235ffc"/>
			<stop offset=".5" stop-color="#245efc"/>
			<stop offset=".5" stop-color="#245dfc"/>
			<stop offset=".5" stop-color="#245cfc"/>
			<stop offset=".5" stop-color="#255bfc"/>
			<stop offset=".5" stop-color="#255afb"/>
			<stop offset=".5" stop-color="#265afb"/>
			<stop offset=".5" stop-color="#2659fb"/>
			<stop offset=".5" stop-color="#2659fb"/>
			<stop offset=".5" stop-color="#2658fb"/>
			<stop offset=".5" stop-color="#2658fb"/>
			<stop offset=".5" stop-color="#2757fb"/>
			<stop offset=".5" stop-color="#2756fb"/>
			<stop offset=".5" stop-color="#2755fb"/>
			<stop offset=".5" stop-color="#2854fb"/>
			<stop offset=".6" stop-color="#2853fb"/>
			<stop offset=".6" stop-color="#2852fb"/>
			<stop offset=".6" stop-color="#2951fb"/>
			<stop offset=".6" stop-color="#2950fb"/>
			<stop offset=".6" stop-color="#294ffb"/>
			<stop offset=".6" stop-color="#2a4efb"/>
			<stop offset=".6" stop-color="#2a4dfb"/>
			<stop offset=".6" stop-color="#2a4cfb"/>
			<stop offset=".6" stop-color="#2b4bfb"/>
			<stop offset=".6" stop-color="#2b4afb"/>
			<stop offset=".6" stop-color="#2b49fb"/>
			<stop offset=".6" stop-color="#2c48fb"/>
			<stop offset=".6" stop-color="#2c47fb"/>
			<stop offset=".7" stop-color="#2c46fb"/>
			<stop offset=".7" stop-color="#2d45fb"/>
			<stop offset=".7" stop-color="#2d45fb"/>
			<stop offset=".7" stop-color="#2d44fb"/>
			<stop offset=".7" stop-color="#2e43fb"/>
			<stop offset=".7" stop-color="#2e42fb"/>
			<stop offset=".7" stop-color="#2e41fa"/>
			<stop offset=".7" stop-color="#2f40fa"/>
			<stop offset=".7" stop-color="#2f3ffa"/>
			<stop offset=".7" stop-color="#2f3efa"/>
			<stop offset=".7" stop-color="#303dfa"/>
			<stop offset=".7" stop-color="#303cfa"/>
			<stop offset=".8" stop-color="#303bfa"/>
			<stop offset=".8" stop-color="#313afa"/>
			<stop offset=".8" stop-color="#3139fa"/>
			<stop offset=".8" stop-color="#3138fa"/>
			<stop offset=".8" stop-color="#3237fa"/>
			<stop offset=".8" stop-color="#3236fa"/>
			<stop offset=".8" stop-color="#3235fa"/>
			<stop offset=".8" stop-color="#3334fa"/>
			<stop offset=".8" stop-color="#3333fa"/>
			<stop offset=".8" stop-color="#3332fa"/>
			<stop offset=".8" stop-color="#3431fa"/>
			<stop offset=".8" stop-color="#3431fa"/>
			<stop offset=".8" stop-color="#3530fa"/>
			<stop offset=".9" stop-color="#352ffa"/>
			<stop offset=".9" stop-color="#352efa"/>
			<stop offset=".9" stop-color="#362dfa"/>
			<stop offset=".9" stop-color="#362cfa"/>
			<stop offset=".9" stop-color="#362bfa"/>
			<stop offset=".9" stop-color="#372afa"/>
			<stop offset=".9" stop-color="#3729fa"/>
			<stop offset=".9" stop-color="#3728fa"/>
			<stop offset=".9" stop-color="#3827f9"/>
			<stop offset=".9" stop-color="#3826f9"/>
			<stop offset=".9" stop-color="#3825f9"/>
			<stop offset=".9" stop-color="#3924f9"/>
			<stop offset=".9" stop-color="#3923f9"/>
			<stop offset="1" stop-color="#3922f9"/>
			<stop offset="1" stop-color="#3a21f9"/>
			<stop offset="1" stop-color="#3a20f9"/>
			<stop offset="1" stop-color="#3a1ff9"/>
			<stop offset="1" stop-color="#3b1ef9"/>
			<stop offset="1" stop-color="#3b1df9"/>
			<stop offset="1" stop-color="#3b1df9"/>
		</linearGradient>
		<linearGradient id="g2" x1="8.7" y1="1.9" x2="16.5" y2="37.1" gradientUnits="userSpaceOnUse">
			<stop offset="0" stop-color="#1096fe"/>
			<stop offset="0" stop-color="#1096fe"/>
			<stop offset="0" stop-color="#1095fe"/>
			<stop offset="0" stop-color="#1194fe"/>
			<stop offset="0" stop-color="#1193fe"/>
			<stop offset="0" stop-color="#1192fe"/>
			<stop offset="0" stop-color="#1291fe"/>
			<stop offset=".1" stop-color="#1290fe"/>
			<stop offset=".1" stop-color="#128ffe"/>
			<stop offset=".1" stop-color="#138efe"/>
			<stop offset=".1" stop-color="#138dfd"/>
			<stop offset=".1" stop-color="#138cfd"/>
			<stop offset=".1" stop-color="#148bfd"/>
			<stop offset=".1" stop-color="#148afd"/>
			<stop offset=".1" stop-color="#1489fd"/>
			<stop offset=".1" stop-color="#1588fd"/>
			<stop offset=".1" stop-color="#1587fd"/>
			<stop offset=".1" stop-color="#1586fd"/>
			<stop offset=".1" stop-color="#1685fd"/>
			<stop offset=".1" stop-color="#1684fd"/>
			<stop offset=".2" stop-color="#1683fd"/>
			<stop offset=".2" stop-color="#1782fd"/>
			<stop offset=".2" stop-color="#1782fd"/>
			<stop offset=".2" stop-color="#1881fd"/>
			<stop offset=".2" stop-color="#1880fd"/>
			<stop offset=".2" stop-color="#187ffd"/>
			<stop offset=".2" stop-color="#197efd"/>
			<stop offset=".2" stop-color="#197dfd"/>
			<stop offset=".2" stop-color="#197cfd"/>
			<stop offset=".2" stop-color="#1a7bfd"/>
			<stop offset=".2" stop-color="#1a7afd"/>
			<stop offset=".2" stop-color="#1a79fd"/>
			<stop offset=".3" stop-color="#1b78fd"/>
			<stop offset=".3" stop-color="#1b77fd"/>
			<stop offset=".3" stop-color="#1b76fd"/>
			<stop offset=".3" stop-color="#1c75fd"/>
			<stop offset=".3" stop-color="#1c74fc"/>
			<stop offset=".3" stop-color="#1c73fc"/>
			<stop offset=".3" stop-color="#1d72fc"/>
			<stop offset=".3" stop-color="#1d71fc"/>
			<stop offset=".3" stop-color="#1d70fc"/>
			<stop offset=".3" stop-color="#1e6ffc"/>
			<stop offset=".3" stop-color="#1e6efc"/>
			<stop offset=".3" stop-color="#1e6efc"/>
			<stop offset=".3" stop-color="#1f6dfc"/>
			<stop offset=".4" stop-color="#1f6cfc"/>
			<stop offset=".4" stop-color="#1f6bfc"/>
			<stop offset=".4" stop-color="#206afc"/>
			<stop offset=".4" stop-color="#2069fc"/>
			<stop offset=".4" stop-color="#2068fc"/>
			<stop offset=".4" stop-color="#2167fc"/>
			<stop offset=".4" stop-color="#2166fc"/>
			<stop offset=".4" stop-color="#2165fc"/>
			<stop offset=".4" stop-color="#2264fc"/>
			<stop offset=".4" stop-color="#2263fc"/>
			<stop offset=".4" stop-color="#2262fc"/>
			<stop offset=".4" stop-color="#2361fc"/>
			<stop offset=".4" stop-color="#2360fc"/>
			<stop offset=".5" stop-color="#235ffc"/>
			<stop offset=".5" stop-color="#245efc"/>
			<stop offset=".5" stop-color="#245dfc"/>
			<stop offset=".5" stop-color="#245cfc"/>
			<stop offset=".5" stop-color="#255bfc"/>
			<stop offset=".5" stop-color="#255afb"/>
			<stop offset=".5" stop-color="#265afb"/>
			<stop offset=".5" stop-color="#2659fb"/>
			<stop offset=".5" stop-color="#2659fb"/>
			<stop offset=".5" stop-color="#2658fb"/>
			<stop offset=".5" stop-color="#2658fb"/>
			<stop offset=".5" stop-color="#2757fb"/>
			<stop offset=".5" stop-color="#2756fb"/>
			<stop offset=".5" stop-color="#2755fb"/>
			<stop offset=".5" stop-color="#2854fb"/>
			<stop offset=".6" stop-color="#2853fb"/>
			<stop offset=".6" stop-color="#2852fb"/>
			<stop offset=".6" stop-color="#2951fb"/>
			<stop offset=".6" stop-color="#2950fb"/>
			<stop offset=".6" stop-color="#294ffb"/>
			<stop offset=".6" stop-color="#2a4efb"/>
			<stop offset=".6" stop-color="#2a4dfb"/>
			<stop offset=".6" stop-color="#2a4cfb"/>
			<stop offset=".6" stop-color="#2b4bfb"/>
			<stop offset=".6" stop-color="#2b4afb"/>
			<stop offset=".6" stop-color="#2b49fb"/>
			<stop offset=".6" stop-color="#2c48fb"/>
			<stop offset=".6" stop-color="#2c47fb"/>
			<stop offset=".7" stop-color="#2c46fb"/>
			<stop offset=".7" stop-color="#2d45fb"/>
			<stop offset=".7" stop-color="#2d45fb"/>
			<stop offset=".7" stop-color="#2d44fb"/>
			<stop offset=".7" stop-color="#2e43fb"/>
			<stop offset=".7" stop-color="#2e42fb"/>
			<stop offset=".7" stop-color="#2e41fa"/>
			<stop offset=".7" stop-color="#2f40fa"/>
			<stop offset=".7" stop-color="#2f3ffa"/>
			<stop offset=".7" stop-color="#2f3efa"/>
			<stop offset=".7" stop-color="#303dfa"/>
			<stop offset=".7" stop-color="#303cfa"/>
			<stop offset=".8" stop-color="#303bfa"/>
			<stop offset=".8" stop-color="#313afa"/>
			<stop offset=".8" stop-color="#3139fa"/>
			<stop offset=".8" stop-color="#3138fa"/>
			<stop offset=".8" stop-color="#3237fa"/>
			<stop offset=".8" stop-color="#3236fa"/>
			<stop offset=".8" stop-color="#3235fa"/>
			<stop offset=".8" stop-color="#3334fa"/>
			<stop offset=".8" stop-color="#3333fa"/>
			<stop offset=".8" stop-color="#3332fa"/>
			<stop offset=".8" stop-color="#3431fa"/>
			<stop offset=".8" stop-color="#3431fa"/>
			<stop offset=".8" stop-color="#3530fa"/>
			<stop offset=".9" stop-color="#352ffa"/>
			<stop offset=".9" stop-color="#352efa"/>
			<stop offset=".9" stop-color="#362dfa"/>
			<stop offset=".9" stop-color="#362cfa"/>
			<stop offset=".9" stop-color="#362bfa"/>
			<stop offset=".9" stop-color="#372afa"/>
			<stop offset=".9" stop-color="#3729fa"/>
			<stop offset=".9" stop-color="#3728fa"/>
			<stop offset=".9" stop-color="#3827f9"/>
			<stop offset=".9" stop-color="#3826f9"/>
			<stop offset=".9" stop-color="#3825f9"/>
			<stop offset=".9" stop-color="#3924f9"/>
			<stop offset=".9" stop-color="#3923f9"/>
			<stop offset="1" stop-color="#3922f9"/>
			<stop offset="1" stop-color="#3a21f9"/>
			<stop offset="1" stop-color="#3a20f9"/>
			<stop offset="1" stop-color="#3a1ff9"/>
			<stop offset="1" stop-color="#3b1ef9"/>
			<stop offset="1" stop-color="#3b1df9"/>
			<stop offset="1" stop-color="#3b1df9"/>
		</linearGradient>
	</defs>
	<style>
		.s0 { fill: url(#g1) } 
		.s1 { fill: url(#g2) } 
		.s2 { fill: #fdbe10 } 
		.s3 { fill: #ffb800 } 
		.s4 { fill: #ffe0b2 } 
		.s5 { fill: #607d8b } 
		.s6 { fill: #ff3600 } 
		.s7 { fill: #9fa8da } 
	</style>
	<path id="Layer" class="s0" d="m109.4 29.4c0 0-0.3 0.9-1.3 1.1c-1.2 0.8-2.8 0-4.2 0.5c-0.1 0 0.1-0.4-0.3-0.3c-1.3 0.6-3.3 0.2-4.9-0.3l0.1-0.1c-0.3-0.1-0.7 0.3-1 0.3c0-0.1 0.1-0.2 0-0.3c-0.1 0.3-0.5 0.1-0.7 0.3c-0.1-0.1-0.1-0.3-0.2-0.4l-0.2 0.3c-0.5 0.7-1.3 0-1.9 0.3c0-0.1 0.1-0.1 0-0.2c-1.1 0.4-2.5 0.3-3.8 0.5c0.1-0.1 0.1-0.3 0.1-0.4c-0.1 0.3-0.5 0.3-0.8 0.4c-0.1-0.3-0.6 0.3-1 0.1l0.1-0.1c-0.3 0.4-0.5-0.1-0.7 0.2l-0.2-0.2c-0.2 0.4-0.4-0.2-0.7 0v0.1c-0.2 0.1-0.3-0.1-0.5-0.1c-0.5 0.1-0.8-0.1-0.8 0.2c-0.2-0.3 0.5-0.1 0.2-0.5q-0.2 0.1-0.6 0.1c-1.4 0.2-2.8 0.2-4.3 0.2c-0.1-0.2-0.3-0.2-0.3-0.3c-0.2 0-0.6 0-0.7 0.2c0 0-0.2-0.2-0.2-0.2c-0.4-0.1-0.4 0.3-0.7 0.2q0.2-0.1 0.1-0.3c-0.2 0.3-0.6 0.2-0.9 0.3c0.1-0.1 0.2-0.1 0.1-0.2c-0.3 0.3-0.6-0.1-0.9 0.1l0.1-0.2c-0.5-0.2-0.1 0.4-0.6 0.3c0.1-0.1 0.1-0.1 0.1-0.2c-0.4 0.3-1.1 0.2-1.5 0.3q0.1 0 0.1 0c-0.4 0-0.9-0.1-1.4 0c-0.2-0.1 0-0.4-0.4-0.4c0 0.4-0.8 0.2-0.5 0.6c-0.4 0-1-0.2-1.3 0c0.2-0.2-0.2-0.5 0.1-0.5l-0.2-0.3c0.1-0.1 0.3 0.1 0.2-0.1c-0.2 0-0.7 0.2-0.8 0.1c-0.3 0.2-0.6 0.7-1.1 0.7c0.2-0.1 0-0.3 0-0.4v-0.1c0 0 0 0 0 0.1l-0.7 0.7c-0.1 0 0-0.3-0.2-0.2c0 0.1-0.1 0.1-0.2 0.2c-0.1-0.1-0.7 0.1-0.8-0.3c-0.1-0.1 0.3-0.1 0.1-0.2c-0.3 0-0.3 0.1-0.6 0.1c-0.2-0.1-0.6 0.2-0.4 0.4c0.1 0 0-0.3 0.2-0.2c-0.2 0.3-0.5 0.3-0.9 0.3c0.1 0 0.1-0.1 0.2-0.2c-0.4 0.3-0.8 0.3-1.3 0.5c0.1-0.1 0.2-0.2 0.2-0.3c-0.6-0.2-1.2 0.4-1.6 0.1q0-0.1-0.1-0.1c0 0 0 0.1 0.1 0.1c0 0 0 0.2 0 0.2c-0.3-0.1-0.3-0.3-0.5-0.2c0-0.2-0.2 0-0.4 0.1c-0.1 0.1-0.1 0 0-0.1q0.1 0 0.1 0q0 0-0.1 0c-0.4 0.2-1.3 0.3-1.8 0.1c0 0.1-0.4 0.4-0.5 0.4v-0.3q0 0-0.1 0c0 0 0.1-0.1 0.2-0.2c0.1 0 0.1 0 0.1 0q0 0 0.1 0c0.1 0 0.1 0-0.1 0q0 0-0.1 0c-0.1 0.1-0.2 0.1-0.3 0.1q-0.2 0-0.3 0c0 0 0 0 0-0.1c-0.1 0.1 0 0.1 0 0.1c-0.1 0.1-0.3 0.2-0.5 0c0 0 0.2-0.3 0-0.3c-0.4 0.1-0.1 0.1-0.5 0.2l-0.2 0.1c0 0.2-0.3 0-0.2 0.2c-0.1-0.1-0.6 0.1-0.5-0.2v-0.3c-0.1 0-0.2 0.3-0.4 0.4c0 0 0-0.1 0-0.1c-0.1 0.4-0.4 0-0.6 0.3c-0.5-0.2-1 0-1.2-0.3c-0.2 0.1-0.5 0.3-0.8 0.2c0-0.1 0.1-0.1 0.1-0.2c-0.2-0.1-0.2 0-0.4 0.1c0.1-0.1-0.4-0.3-0.6-0.4c-0.3 0.1-0.2 0.4-0.2 0.5c-0.3-0.5-0.8 0.3-1.1-0.1c0.1-0.1 0.4-0.2 0.1-0.4c-0.2-0.4-0.5 0.4-0.9 0.2l0.1 0.3c-0.2-0.3-0.6 0.2-0.6-0.2c-0.1 0.1-0.5-0.1-0.4 0.2c-0.7-0.3-1.7 0.2-2.1-0.4c-0.1 0-0.3 0-0.3 0.2c0.2 0.2 0.3-0.2 0.3 0c0 0-0.1 0.1-0.1 0.1c-0.2 0-0.4-0.1-0.2-0.4c-0.4-0.2-0.4 0.6-1 0.5c0-0.2 0-0.2-0.2-0.2l-0.4 0.3c-0.3-0.1-0.2-0.4-0.2-0.6c-0.2 0-0.5 0-0.5 0.2l-0.3-0.3c0.2 0.2-0.1 0.1-0.2 0.2l0.1-0.1c-0.1-0.1-0.3 0-0.5 0c0.1 0.2 0.3 0.3 0.5 0.3c-0.1 0.1-0.3 0.1-0.5 0.2c0.1-0.2-0.3-0.1-0.5-0.2c-0.2 0-0.2 0.3-0.2 0.3c-0.1-0.2-0.3 0-0.2-0.2c0-0.1 0.1 0.1 0.2 0c-0.1-0.1-0.1-0.3-0.3-0.2c-0.2 0.2 0.1 0.5-0.3 0.4c0.1-0.1 0.1-0.2 0.2-0.3l-0.4-0.1v0.2c0 0 0 0 0-0.1c-0.1 0.3-0.6 0.1-0.6 0.4c-0.2 0-0.4-0.2-0.5-0.2v-0.1c-0.2-0.1-0.5 0-0.7 0.1c-0.1 0-0.3 0-0.5 0.1c-0.2-0.1-0.1-0.8-0.4-0.5c-0.3 0-0.4 0.4-0.3 0.5c-0.5-0.1-1.1 0.2-1.5-0.1c-0.1 0.1-0.1 0.1-0.2 0.2c-0.8-0.1-1.6 0.3-2.2-0.2c0.2-0.1 0-0.2 0-0.3c-0.2 0.2-0.2-0.2-0.4 0.1c0 0.2 0 0.3 0.2 0.4c-0.5 0.1-1.2 0.1-1.4-0.1c0.1 0.1 0 0.2-0.1 0.3c0.1-0.4-0.3-0.4-0.5-0.3v0.2l-0.2-0.2c-0.1 0.1-0.1 0.4-0.4 0.2q0-0.1 0-0.2c-0.3 0.2-0.6 0.5-0.9 0.3l-0.2-0.3c-0.1 0-0.4 0.2-0.1 0.3c-0.6-0.2-0.9-0.2-1-0.5c0 0 0 0-0.1 0.1c-0.8 0.6-1.9 0.6-2.9 0.5l0.1-0.1c-0.3-0.1-0.1 0.3-0.3 0.2c0-0.2-0.2-0.3 0-0.5c-0.4-0.2-0.5 0.2-0.8 0.3c0 0.2 0.2-0.1 0.2 0.1c-0.1 0.1-0.5-0.1-0.6 0.2c-0.1-0.2 0-0.4 0-0.5l-0.2 0.1c-0.3-0.3 0.6-0.6 0.3-1h-0.2c-0.2-0.3 0.6-0.3 0.1-0.4c-0.2 0.1-0.4 0.6-0.2 0.7c-0.5 0.1-0.2 0.7-0.7 0.7c-0.2-0.2 0.4-0.1 0.3-0.3c-0.3-0.3-0.5 0.1-0.7 0c0.2 0.1 0 0.4-0.1 0.5c-0.3-0.2 0.1-0.3-0.2-0.3c-0.1 0.2-0.4 0.3-0.1 0.4c-0.2 0.4-0.4-0.1-0.6 0.2c-0.1-0.3 0.4-0.6 0-0.8c0 0.3-0.5 0.4-0.3 0.8c-0.2-0.1-0.2-0.3-0.1-0.5c-0.2-0.1-0.5 0.5-0.6 0l-0.1 0.3c-0.1-0.1-0.2-0.2-0.3-0.3c-0.2 0-0.6 0.3-0.6-0.1c-0.1 0.1-0.5 0-0.3 0.3c0.2 0.2 0.3-0.2 0.5 0.2c-0.3-0.3-0.5 0.1-0.6 0.2l-0.1-0.2c-0.1 0.1-0.3 0-0.3 0.2c0-0.1 0-0.2-0.1-0.2l-0.1 0.2c-0.4 0.1-0.1-0.4-0.5-0.3l0.4-0.2c-0.1 0-0.2-0.2-0.4-0.1c-0.1 0.2-0.2 0.5-0.3 0.6c-0.2 0.1-0.1-0.2-0.2 0l0.2-0.3c0 0-0.2-0.3-0.5-0.3c-0.1 0.1-0.4 0.4-0.1 0.5c-0.2 0-0.4-0.1-0.3-0.3c-0.3 0.1 0.1 0.2-0.2 0.4c-0.1-0.2-0.5-0.4-0.7-0.6l0.3-0.4h-0.2c0.3-0.3-0.1-0.2 0-0.5c-0.1-0.1-0.2 0.1-0.4 0.1c0.4 0.5-0.4 0.7-0.3 1.2c-0.5 0.1-0.3-1.2-0.9-0.4c0.1 0 0 0.3 0.1 0.3c-0.2 0.1-0.2 0.4-0.5 0.2c0.3-0.2-0.3-0.4 0.1-0.7c0 0.1 0.2 0.1 0.3 0.1c-0.1-0.2 0-0.5-0.3-0.5c-0.2 0.1-0.5 0.1-0.4 0.3c0 0.3 0.3 0 0.2 0.2c-0.4 0.1-0.5-0.3-0.7 0.2c0.3-0.1 0.3 0.2 0.3 0.4l-0.3 0.1l0.1-0.2c-0.5-0.1-0.2 0.3-0.6 0.3l-0.3-0.3c0.2-0.3 0.7 0.1 0.6-0.4c-0.2 0-0.3 0.2-0.6 0.1q0.1-0.1 0.2-0.1c-0.1 0-0.2-0.7-0.7-0.3c-0.2 0.1 0 0.1 0 0.3c-0.6 0.1-0.7 0.3-1 0.3c0.1-0.4-0.5-0.1-0.2-0.4c0.2 0.2 0.9 0.2 1.1-0.1c-0.3-0.5 0.3 0 0.4-0.4c-0.4 0-0.3-0.4-0.4-0.7c-0.1 0-0.2 0.1-0.3 0.2c0 0.2 0.1 0.2 0.1 0.5c-0.4-0.1-0.9 0-1.1 0.3c-0.1-0.2-0.1-0.4 0.1-0.4c-0.6 0-1.1 0-1.6-0.1c0.3 0.4-0.3 0.2-0.3 0.4c0-0.1-0.1-0.3-0.1-0.4c-0.4 0.1 0-0.3-0.3-0.3c-0.4 0.2-0.8 0.4-1.2 0.4c-0.5-0.3-1.2 0-1.6 0c-0.3-0.1-0.1-0.5-0.3-0.6c-0.3 0 0.2 0.4-0.2 0.3v-0.1c-0.1 0.1-0.7-0.2-0.9 0.3l0.2-0.4c-0.1-0.1-0.2 0-0.2 0.1c0-0.2-0.1-0.3 0-0.4c-0.3-0.2-0.6 0.1-0.9 0.1l0.2 0.2c-0.4 0.2-0.8 0-1.2 0.1v-0.3l-0.3 0.2c0.1-0.2-0.1-0.3-0.2-0.3l0.7-0.5c0.2 0.2-0.3 0.3-0.1 0.5c0.1 0.3 0.5 0.2 0.6 0c-0.2-0.1-0.2 0-0.3 0.1c-0.1-0.3 0.2-0.3 0.3-0.5c0 0-0.1-0.1-0.2-0.1c0.2-0.1 0.4-0.1 0.6-0.1c-0.2 0.1 0 0.2 0 0.2v0.1c0.1-0.3 0.3-0.3 0.7-0.3c0.2 0.3 0.6-0.2 1-0.1c-0.1 0.3-0.4 0.5-0.6 0.6c0.2 0.1 0.3 0 0.5 0.1c0.2-0.2 0.2-0.5 0.6-0.6v0.2c0.3-0.1 0.3-0.4 0.7-0.4c0.7 0.1 1.3 0.1 1.8 0.2l0.1 0.2c0.3-0.5 0.9-0.2 1.3-0.4c0.6 0.2 1.4-0.2 1.7 0.1c1.1-0.1 2.1-0.3 3.3-0.2l-0.2 0.3c0.2-0.2 0.1 0.2 0.3 0.1c-0.2-0.2 0.3-0.3 0.5-0.5c0.5 0.3 1.1 0 1.6-0.2v0.2c0.5-0.4 1 0 1.6 0c0.1 0.1 0.2 0.3 0.4 0.3c0.3-0.3 0.4-0.3 0.9-0.5c0.4 0 0.9 0.1 1.2 0.2c1.3-0.5 2.6-0.2 3.9-0.5l0.1 0.2c1.1-0.4 2.5-0.1 3.6-0.2c0.1 0 0.2 0 0.4-0.1l-0.1 0.4c0.3 0.2 0.7-0.1 0.7-0.4c0.3 0.1 0.8-0.2 1 0.2c0.3 0.1 0.4-0.2 0.7-0.3c0.7 0.2 0.9 0.2 1.5 0.1c-0.1 0.1-0.1 0.2 0.1 0.2c0.2-0.1 0.9 0.1 0.6-0.4c0.8 0.3 1.7-0.2 2.4 0.2c0-0.1 0.1-0.2 0.2-0.2c0.6 0 1.2 0.2 1.8 0c0.1 0-0.2 0.2 0.1 0.2c0.1 0 0-0.1 0.2-0.2c1-0.3 2 0.3 2.9 0.2c1.6-0.3 3.3-0.2 4.9-0.2l-0.1 0.1c0.5-0.4 1.3 0.4 1.7-0.2c0.1 0.1 0.4 0 0.3 0.2c0.4-0.2 1.1 0.2 1.7 0c0.6 0.2 1.1-0.1 1.7 0.1c0 0.1-0.1 0.1-0.2 0.2c0.3 0.2 0.6-0.4 0.8 0.1c0.1 0 0.1-0.3 0-0.3c1.4 0.2 2.9-0.1 4.3-0.2c1.1 0.3 0.1 0.8 0.9 0.5c0.1 0.1 0.1-0.2 0.1-0.1c0.3-0.2 0.5 0.5 0.7 0.3c-0.1-0.3 0.2-0.2 0.2-0.4c0.6 0.2 0.7 0.5 1.2 0.3v0.1c0.6-0.4 1.2-0.2 1.7-0.7c3.3-0.1 6.5-0.4 9.6-0.4c3.1 0.1 6.2-0.2 9.4 0.1c0.6 0.3 0.8 0.4 1.1 0.3c0.1 0 0.3 0 0.5-0.1c0 0.1-0.1 0.1 0 0.2c0-0.3 0.6 0 0.7-0.4c1.2 0.1 2.2 0 3.4 0c-0.2 0.1-0.3 0.3 0 0.3l0.2-0.2v0.1c0.2-0.1 0.4-0.2 0.2-0.3c3.1-0.3 6 0.3 9 0.3c0.7 0.1 1.7 0 2.5-0.1c2.3 0.4 4.3 0.8 6.7 0.6z"/>
	<path id="Layer" fill-rule="evenodd" class="s1" d="m46.7 10.3c1.2-1.3 2.8-2 4.7-2c1.7 0 3.2 0.6 4.3 1.6v-9.9h4.6v21.6h-4.5v-1.4c-1.2 1.2-2.6 1.8-4.4 1.8c-1.9 0-3.5-0.6-4.7-1.9c-1.3-1.4-1.9-3-1.9-4.9c0-1.9 0.6-3.5 1.9-4.9zm3.8 7.1q0.9 0.8 2.3 0.8q1.3 0 2.2-0.9q0.8-0.8 0.8-2.1q0-1.4-0.9-2.2c-0.5-0.6-1.3-0.9-2.1-0.9c-0.9 0.1-1.7 0.3-2.2 0.9q-0.9 0.9-0.9 2.2q0 1.4 0.8 2.2zm-35.4-15.4l0.8 0.5l-2 3.8q-0.2-0.1-0.3-0.2q-0.2-0.1-0.4-0.2q-0.4-0.3-1.5-0.7q-1.1-0.4-2.1-0.4q-1.2 0-1.9 0.5q-0.6 0.5-0.6 1.4q0 0.4 0.3 0.8q0.3 0.3 1 0.7q0.3 0.2 0.5 0.3q0.4 0.2 0.8 0.4q0.1 0.1 0.2 0.1q0.6 0.3 1.6 0.7c1.4 0.5 2.6 1.3 3.5 2.3c1 1 1.5 2.1 1.5 3.3q0 1.8-0.7 3.2c-0.4 0.9-1 1.6-1.8 2.1q-1.1 0.7-2.5 1.1c-0.9 0.2-1.9 0.4-3 0.4q-1.4-0.1-2.7-0.3c-0.9-0.2-1.7-0.4-2.3-0.7q-0.9-0.4-1.6-0.8q-0.7-0.4-1.1-0.7l-0.3-0.3l2.4-4l0.1 0.1q0.3 0.2 0.8 0.6c0.3 0.2 1 0.6 1.9 1q1.4 0.7 2.4 0.7q3.1 0 3.1-2.1c0-0.3-0.1-0.5-0.2-0.8c-0.2-0.2-0.5-0.5-0.8-0.7q-0.2-0.1-0.3-0.1q-0.4-0.3-0.7-0.5q-0.4-0.2-1.4-0.7q-0.4-0.1-0.7-0.3q-0.5-0.2-0.7-0.3q-2-1-3-2.4q-1.1-1.4-1.1-2.9q0-2.9 2.1-4.6c1.4-1.2 3-1.8 4.9-1.8q1.7 0 3.3 0.5c1.1 0.4 1.9 0.7 2.5 1zm9 2v4.7h2.8v3.4h-2.8v4.1q0 1.8 1 1.8q0.2 0 0.5-0.1q0.3-0.1 0.5-0.2l0.1-0.1l1.2 3.6q-1.5 0.8-3.4 0.8q-1.3 0-2.2-0.4q-0.9-0.5-1.4-1.2q-0.4-0.7-0.7-1.5q-0.2-0.8-0.2-1.8v-5h-1.9v-3.4h1.9v-4.7zm9.1 4.7v6.2c0 1.3 0.2 2.2 0.6 2.7c0.4 0.6 1.1 0.8 2 0.8q1.5 0 2-0.8c0.4-0.5 0.6-1.4 0.6-2.7v-6.2h4.6v7.3c0 2.1-0.6 3.7-1.7 4.6c-1.2 1-3 1.5-5.5 1.5q-3.7 0-5.4-1.5c-1.2-0.9-1.7-2.5-1.7-4.6v-7.3zm30.6-7.1c0.5-0.6 1.1-0.8 1.9-0.8c0.7 0 1.3 0.3 1.9 0.8c0.5 0.5 0.8 1.1 0.8 1.8c0 0.8-0.3 1.4-0.8 1.9c-0.5 0.5-1.2 0.8-1.9 0.8c-0.8 0-1.4-0.3-1.9-0.8c-0.6-0.5-0.8-1.1-0.8-1.9q0-1.1 0.8-1.8zm4.1 7.1v13h-4.6v-13zm4.2 1.6c1.2-1.3 2.8-2 4.7-2c1.7 0 3.2 0.6 4.3 1.6v-1.2h4.5v12.9h-4.5v-1.4c-1.1 1.2-2.6 1.8-4.3 1.8c-1.9 0-3.5-0.6-4.7-1.9c-1.3-1.4-1.9-3-1.9-4.9c0-1.9 0.6-3.5 1.9-4.9zm3.8 7.1q0.9 0.8 2.2 0.8q1.4 0 2.3-0.9q0.8-0.8 0.8-2.1q0-1.4-0.9-2.2c-0.6-0.6-1.3-0.9-2.2-0.9c-0.8 0.1-1.6 0.3-2.2 0.9q-0.8 0.9-0.9 2.2q0 1.4 0.9 2.2zm12.8 4.3v-21.7h4.6v21.7zm12.2-21.7v21.7h-4.5v-21.7z"/>
	<path id="Layer" class="s2" d="m107.4 8.7l3.2 7.1l3.3-7.1h5.4l-7.1 13h-3.1l-7.1-13z"/>
	<path id="Layer" class="s3" d="m106.3 22.9l7.6-14.7l5.1 2.5l-7.7 14.7z"/>
	<path id="Layer" class="s4" d="m106.6 28.4l-0.4-5.5l5.1 2.5z"/>
	<path id="Layer" class="s5" d="m108.6 27.1l-2 1.3l-0.2-2.4z"/>
	<path id="Layer" class="s6" d="m119.3 10.3l-0.6 1.1l-5.2-2.5l0.7-1.1c0.5-1.1 1.9-1.5 3-1l1.1 0.6c1.1 0.5 1.5 1.8 1 2.9z"/>
	<path id="Layer" class="s7" d="m112.9 10.2l1-2l5.1 2.5l-1 2z"/>
</svg>